<svg id="icons" xmlns="http://www.w3.org/2000/svg" viewBox="0 0 48 48"><defs><style>.cls-1{fill:#ea0a8b;}</style></defs><title>icons</title><path class="cls-1" d="M27.29,22.76a.8.8,0,0,0,1.08.35A68.58,68.58,0,0,1,35.44,20,.8.8,0,0,0,35,18.44a68.62,68.62,0,0,0-7.32,3.25A.8.8,0,0,0,27.29,22.76Z"/><path class="cls-1" d="M28,13.6a.8.8,0,0,0,.36-.09,68.58,68.58,0,0,1,7.08-3.15A.8.8,0,0,0,35,8.84a68.62,68.62,0,0,0-7.32,3.25A.8.8,0,0,0,28,13.6Z"/><path class="cls-1" d="M47.2,12a.8.8,0,0,0-.8.8V44A2.4,2.4,0,0,1,44,46.4H24.8V44.56A23.58,23.58,0,0,1,32,43.2a41.26,41.26,0,0,1,11.75,1.56A.8.8,0,0,0,44.8,44V8.8A.8.8,0,0,0,44.17,8s-.63-.14-1.7-.34a.8.8,0,0,0-.29,1.57l1,.19V42.94A45.18,45.18,0,0,0,32,41.6a25.13,25.13,0,0,0-8,1.53A18.74,18.74,0,0,0,16.8,41.6,53.91,53.91,0,0,0,4.8,43V9.42A52.66,52.66,0,0,1,16.8,8a17.35,17.35,0,0,1,6.4,1.32V40.8a.8.8,0,0,0,1.21.69,91.59,91.59,0,0,1,15-7.13A.8.8,0,0,0,40,33.6V.8A.8.8,0,0,0,38.92.05,85.1,85.1,0,0,0,26,6.52a.8.8,0,0,0,.85,1.36A85.51,85.51,0,0,1,38.4,2V33a89.65,89.65,0,0,0-13.6,6.38V8.8a.8.8,0,0,0-.44-.72A18.52,18.52,0,0,0,16.8,6.4,51.92,51.92,0,0,0,3.78,8a.8.8,0,0,0-.58.77V44a.8.8,0,0,0,.8.8.79.79,0,0,0,.22,0A51.39,51.39,0,0,1,16.8,43.2a17.31,17.31,0,0,1,6.4,1.32V46.4H4A2.4,2.4,0,0,1,1.6,44V12.8a.8.8,0,1,0-1.6,0V44a4,4,0,0,0,4,4H44a4,4,0,0,0,4-4V12.8A.8.8,0,0,0,47.2,12Z"/><path class="cls-1" d="M27.29,18a.8.8,0,0,0,1.08.35,68.58,68.58,0,0,1,7.08-3.15A.8.8,0,0,0,35,13.64a68.62,68.62,0,0,0-7.32,3.25A.8.8,0,0,0,27.29,18Z"/><path class="cls-1" d="M27.29,27.56a.8.8,0,0,0,1.08.35,68.58,68.58,0,0,1,7.08-3.15A.8.8,0,0,0,35,23.24a68.62,68.62,0,0,0-7.32,3.25A.8.8,0,0,0,27.29,27.56Z"/><path class="cls-1" d="M19.38,14.85c-4.94-1.16-10.55.32-10.79.38A.8.8,0,0,0,8.8,16.8l.21,0c.05,0,5.46-1.44,10-.37a.8.8,0,1,0,.36-1.56Z"/><path class="cls-1" d="M19.38,19.65C14.44,18.49,8.83,20,8.59,20A.8.8,0,0,0,8.8,21.6l.21,0c.05,0,5.46-1.44,10-.37a.8.8,0,1,0,.36-1.56Z"/><path class="cls-1" d="M27.29,32.36a.8.8,0,0,0,1.08.35,68.58,68.58,0,0,1,7.08-3.15A.8.8,0,0,0,35,28a68.62,68.62,0,0,0-7.32,3.25A.8.8,0,0,0,27.29,32.36Z"/><path class="cls-1" d="M19.38,24.45c-4.94-1.16-10.55.32-10.79.38A.8.8,0,0,0,8.8,26.4l.21,0c.05,0,5.46-1.44,10-.37a.8.8,0,1,0,.36-1.56Z"/><path class="cls-1" d="M19.38,34c-4.94-1.16-10.55.32-10.79.38A.8.8,0,0,0,8.8,36L9,36c.05,0,5.46-1.44,10-.37A.8.8,0,1,0,19.38,34Z"/><path class="cls-1" d="M19.38,29.25c-4.94-1.16-10.55.32-10.79.38A.8.8,0,0,0,8.8,31.2l.21,0c.05,0,5.46-1.44,10-.37a.8.8,0,1,0,.36-1.56Z"/></svg>