<?xml version="1.0" encoding="utf-8"?>
<!-- Generator: Adobe Illustrator 20.0.0, SVG Export Plug-In . SVG Version: 6.00 Build 0)  -->
<svg version="1.2" baseProfile="tiny" id="Layer_1" xmlns="http://www.w3.org/2000/svg" xmlns:xlink="http://www.w3.org/1999/xlink"
	 x="0px" y="0px" width="5px" height="15.7px" viewBox="0 0 5 15.7" xml:space="preserve">
<path fill-rule="evenodd" fill="#FFFFFF" d="M5,0.7C5,0.3,4.7,0,4.3,0H0.7C0.3,0,0,0.3,0,0.7l0.3,8.6C0.3,9.7,0.7,10,1,10h2.9
	c0.4,0,0.7-0.3,0.7-0.7L5,0.7z M4.6,12.5c0-0.4-0.3-0.7-0.7-0.7H1c-0.4,0-0.7,0.3-0.7,0.7V15c0,0.4,0.3,0.7,0.7,0.7h2.9
	c0.4,0,0.7-0.3,0.7-0.7V12.5z"/>
</svg>
