<?xml version="1.0" encoding="utf-8"?>
<!-- Generator: Adobe Illustrator 20.0.0, SVG Export Plug-In . SVG Version: 6.00 Build 0)  -->
<svg version="1.2" baseProfile="tiny" id="Layer_1" xmlns="http://www.w3.org/2000/svg" xmlns:xlink="http://www.w3.org/1999/xlink"
	 x="0px" y="0px" width="37.7px" height="41.1px" viewBox="0 0 37.7 41.1" xml:space="preserve">
<path fill-rule="evenodd" fill="#FFFFFF" d="M29.1,10.3C29.1,4.6,24.5,0,18.9,0C13.2,0,8.6,4.6,8.6,10.3c0,5.7,4.6,10.3,10.3,10.3
	C24.5,20.6,29.1,16,29.1,10.3z M37.7,34.2c0-6.1-1.4-15.3-9.3-15.3c-0.8,0-4.3,3.7-9.6,3.7c-5.3,0-8.8-3.7-9.6-3.7
	C1.4,18.9,0,28.2,0,34.2c0,4.3,2.9,6.9,7.2,6.9h23.4C34.8,41.1,37.7,38.5,37.7,34.2z"/>
</svg>
